<svg width="49" height="84" viewBox="0 0 49 84" fill="none" xmlns="http://www.w3.org/2000/svg">
<path d="M46.664 81.6642C47.8357 80.4922 48.494 78.9028 48.494 77.2455C48.494 75.5882 47.8357 73.9988 46.664 72.8267L15.7265 41.8892L46.664 10.9517C47.8025 9.77295 48.4325 8.19419 48.4183 6.55546C48.404 4.91673 47.7467 3.34915 46.5879 2.19035C45.4291 1.03155 43.8615 0.374248 42.2228 0.360008C40.5841 0.345767 39.0053 0.975732 37.8265 2.11422L2.4703 37.4705C1.2986 38.6425 0.640381 40.2319 0.640381 41.8892C0.640381 43.5465 1.2986 45.1359 2.4703 46.308L37.8265 81.6642C38.9986 82.8359 40.588 83.4941 42.2453 83.4941C43.9026 83.4941 45.492 82.8359 46.664 81.6642Z" fill="black"/>
</svg>
