<svg width="48" height="84" viewBox="0 0 48 84" fill="none" xmlns="http://www.w3.org/2000/svg">
<path d="M1.82985 2.18929C0.658158 3.36134 -6.44922e-05 4.95076 -6.44922e-05 6.60804C-6.44922e-05 8.26532 0.658158 9.85474 1.82985 11.0268L32.7674 41.9643L1.82985 72.9018C0.691364 74.0806 0.0613992 75.6593 0.0756394 77.2981C0.0898795 78.9368 0.747184 80.5044 1.90598 81.6632C3.06479 82.822 4.63237 83.4793 6.2711 83.4935C7.90983 83.5077 9.48859 82.8778 10.6673 81.7393L46.0236 46.383C47.1953 45.211 47.8535 43.6216 47.8535 41.9643C47.8535 40.307 47.1953 38.7176 46.0236 37.5455L10.6673 2.18929C9.4953 1.0176 7.90588 0.359375 6.2486 0.359375C4.59132 0.359375 3.0019 1.0176 1.82985 2.18929Z" fill="black"/>
</svg>
